<svg xmlns="http://www.w3.org/2000/svg" viewBox="0 0 2126.5 2392.73"><defs><style>.cls-1{fill:#fadede;}.cls-2{fill:#f5d5c6;}.cls-3{fill:#684023;}.cls-4{fill:#f5c1c6;}.cls-5{fill:#45413d;}.cls-6{fill:#ecb5b3;}.cls-7{fill:#d89e66;}.cls-8{fill:#b56d31;}</style></defs><g id="Layer_2" data-name="Layer 2"><g id="Outfits"><g id="Outfit_13" data-name="Outfit 13"><path id="Haed" class="cls-1" d="M1565.32,595.77c-5.84-14.29-17.31-25.86-32-30.78-22.06-7.41-37.24,3.67-46.71,15.88,12.72-478.1-418.42-465.69-418.42-465.69s-436.69-3.1-418.86,471.46c-8.9-14-25.23-30.22-50.75-21.65-14.64,4.92-26.12,16.49-32,30.78-16.34,40-39.71,139.6,107.41,182.46a2.18,2.18,0,0,0,2.28-.72c76.34,336.15,250.09,453,339.69,491.86,33.87,14.68,89.61,8.63,105.51,2.43,223.65-87.11,309.81-352.22,340.63-494.87C1604.53,733.39,1581.5,635.38,1565.32,595.77Z"/><path id="Body" class="cls-1" d="M2059.48,1972c-46-377.47-459.66-491.82-739.58-525.8-105.26-50.56-53.17-293.11-51.47-300.9-4,3.26-195.87,3.33-204.44,3.34s-200.43-.08-204.44-3.34c1.7,7.79,53.79,250.34-51.47,300.9-279.92,34-693.6,148.33-739.58,525.8l-48,410,1041.66-7.39h3.7L2107.49,2382Z"/><path id="Head_Shadow" data-name="Head Shadow" class="cls-2" d="M1261.19,1177.75c-2,14.83-3.88,32.13-5,50.67-38.4,35.67-83.28,65.51-135.58,85.74-16,6.22-72.14,12.26-106.24-2.4-37.73-16.24-90.35-46.19-144.4-100.15-1.77-20.26-4.26-38.42-6.54-52.54,56.32,58.16,111.68,89.87,150.94,106.79,34.1,14.65,90.24,8.61,106.24,2.4C1175.21,1247.14,1221.69,1215.53,1261.19,1177.75Z"/><g id="Hair"><path id="Hair-2" data-name="Hair" class="cls-3" d="M1515.85,452.64a31.28,31.28,0,0,0-.49-3.3C1447.72,91,1164.53,71.69,1090.88,72.85c-2.27-14.23,18.67.4-19.11-3.58L1060.63,68s32.33-9.37-41.83-2.3l-35.13,4.72S908.33,57.81,855.89,116c-90.51,42.27-184.46,125.08-228,286.37L598.57,563.65c.9.62,1.82,1.14,2.73,1.72,7.26,6.94,34,33.93,37,58.32,0,0,12.53-39.22,41.48-49.44,1.28-.45,2.42-.92,3.6-1.38,121.49-35.73,266.8-231.16,266.8-231.16,1.64,2.79,3.3,5.52,5,8.25-9.12,6.41-46.44,37.34-22.78,100.43l28.35-45.69s-6.92,116.1,96.87,133.94l-14.08-56.21s70.47,99,194.25,84.68c81.86,21.37,160.66,18.72,219.87,9.93a22,22,0,0,0,2.57.74c30,6.62,35.32,42.37,35.32,42.37,3.53-28.25,38.84-60,38.84-60C1535.24,508.86,1516.57,460.45,1515.85,452.64Z"/><path id="Hair-3" data-name="Hair" class="cls-3" d="M1080.82,84.3s41-16.12,83.14-18.9C1164,65.4,1113.44,6.27,1080.82,84.3Z"/><path id="Hair-4" data-name="Hair" class="cls-3" d="M1081,87s-24.35-47.55-10-87C1071,0,1109.09,30.24,1081,87Z"/></g><g id="Ear_Details" data-name="Ear Details"><path id="Ear_Detail" data-name="Ear Detail" class="cls-4" d="M626.83,704.91a3.55,3.55,0,0,1-3.48-4.17c6.74-37.07-24-88.85-24.27-89.36a3.53,3.53,0,1,1,6-3.64c1.33,2.21,32.39,54.57,25.17,94.27A3.54,3.54,0,0,1,626.83,704.91Z"/><path id="Ear_Detail-2" data-name="Ear Detail" class="cls-4" d="M596.8,703.14a3.53,3.53,0,0,1-.57-7c18.44-3.08,23.4-29.94,23.45-30.21a3.53,3.53,0,0,1,7,1.22c-.23,1.3-5.87,32.06-29.25,36A2.94,2.94,0,0,1,596.8,703.14Z"/><path id="Ear_Detail-3" data-name="Ear Detail" class="cls-4" d="M1508.91,704.91a3.53,3.53,0,0,1-3.47-2.9c-7.22-39.7,23.84-92.06,25.16-94.27a3.53,3.53,0,0,1,6.06,3.64c-.31.51-31,52.29-24.27,89.36a3.54,3.54,0,0,1-2.85,4.11A3.36,3.36,0,0,1,1508.91,704.91Z"/><path id="Ear_Detail-4" data-name="Ear Detail" class="cls-4" d="M1538.93,703.14a2.84,2.84,0,0,1-.58,0c-23.39-3.89-29-34.65-29.25-36a3.53,3.53,0,1,1,7-1.22c0,.27,5,27.13,23.45,30.21a3.53,3.53,0,0,1-.58,7Z"/></g><g id="Eyes"><circle id="Right_Eye" data-name="Right Eye" class="cls-5" cx="1270.49" cy="687.21" r="31.75"/><circle id="Left_Eye" data-name="Left Eye" class="cls-5" cx="867.92" cy="687.21" r="31.75"/></g><path id="Nose" class="cls-6" d="M1098.82,928.79c-8.68,0-22.35-1.32-44.24-5.45a14.75,14.75,0,0,1-9.91-6.92,14.94,14.94,0,0,1-1.38-12.16c12.85-40.26,10-145.76,10-146.82a5.49,5.49,0,0,1,5.33-5.64,5.43,5.43,0,0,1,5.65,5.33c.12,4.41,2.88,108.45-10.53,150.47a3.89,3.89,0,0,0,.35,3.2,3.75,3.75,0,0,0,2.52,1.75c35.09,6.62,48.56,5.77,51,4.22a5.45,5.45,0,0,1,7.69.87,5.51,5.51,0,0,1-.88,7.74C1113,926.54,1110.16,928.79,1098.82,928.79Z"/><path id="Mouth" class="cls-6" d="M1075.72,1098.46c-24.7,0-52.92-7.19-82.64-28.17a6.46,6.46,0,0,1,7.46-10.56c85.22,60.16,154.44-2.12,157.34-4.8a6.46,6.46,0,0,1,8.79,9.48C1166.13,1064.91,1129.11,1098.46,1075.72,1098.46Z"/><path id="Base" class="cls-7" d="M2126.5,2392.73l-118.06-.83-212-1.51-710.88-5.07-13.42-.11-7,0h-3.78l-15.36.11L0,2392.73,48.93,1975c46.82-384.6,468.34-501.15,753.56-535.76,21.45-10.29,36.49-28.43,46.78-50.88,24.79,48.4,102.22,84.92,196.71,90.1,7.66.47,15.47.68,23.39.68q8.14,0,16.19-.32c90.42-3.42,166.3-35.44,197.28-79.52,9.86,17.38,23.28,31.38,41.13,39.94,42,5.11,87,12,133.24,21.23,190.23,38,402.84,116,524.5,275.47,49.72,65.16,84.27,143.89,95.85,239.06L2101,2174.76l11.58,98.91,11.12,94.74Z"/><g id="Outfit_Details" data-name="Outfit Details"><g id="Outfit_Detail" data-name="Outfit Detail"><path class="cls-8" d="M1325.87,1440c-31.62,85.87-45.26,87.18-98.69,143.71-21.32,22.54-46.51,43.55-76.91,49.72a1514.14,1514.14,0,0,1-64.08-150.93c-.89-2.44-1.78-5-1.3-7.58.73-3.83,4.25-6.38,7.46-8.59,59.47-41,150.91-44.43,173.11-113.17,29.44,29.2,25.39,65.41,61.17,86.35"/></g><g id="Outfit_Detail-2" data-name="Outfit Detail"><path class="cls-8" d="M804.87,1443.6c31.62,85.87,45.26,87.18,98.69,143.71,21.31,22.54,46.5,43.55,76.91,49.72a1516.49,1516.49,0,0,0,64.08-150.93c.88-2.44,1.77-5,1.29-7.58-.72-3.83-4.24-6.38-7.45-8.6-59.48-41-153.72-44.43-175.92-113.16-29.43,29.2-22.58,65.41-58.37,86.35"/></g></g></g></g></g></svg>